<?xml version="1.0" encoding="UTF-8" standalone="no"?>

<svg version="1.0" id="cgd" xmlns="http://www.w3.org/2000/svg" width="7mm" viewBox="0 0 1300 940" preserveAspectRatio="xMidYMid meet">
  <g id="layer101" fill="#cf0f12" stroke="none">
    <path d="M469 848 c-24 -40 -55 -95 -71 -121 -15 -26 -28 -57 -28 -68 0 -16 95 -193 117 -218 7 -8 31 23 59 77 l27 54 -22 45 -22 45 34 57 33 56 68 3 c41 2 73 -2 82 -9 8 -6 32 -45 55 -85 22 -41 50 -81 62 -89 22 -16 157 -22 157 -7 0 4 -42 79 -93 167 l-93 160 -161 3 -162 2 -42 -72z"/>
    <path d="M890 914 c0 -4 16 -33 36 -65 36 -60 39 -62 122 -71 17 -2 33 -19 55 -59 l31 -56 -17 -39 c-40 -87 -42 -88 -174 -94 l-118 -5 -37 -65 -38 -65 191 -3 c166 -2 194 0 210 14 31 28 139 222 139 250 0 27 -41 109 -106 212 l-34 52 -130 0 c-71 0 -130 -3 -130 -6z"/>
    <path d="M625 563 c-49 -86 -91 -165 -93 -176 -4 -18 120 -245 142 -259 6 -5 81 -7 166 -5 l154 2 62 105 63 105 -77 3 -77 3 -35 -41 -35 -41 -70 3 -69 3 -34 58 -34 57 51 89 c28 49 51 101 51 116 0 24 -57 135 -70 135 -3 0 -45 -71 -95 -157z"/>
    <path d="M318 373 c-23 -6 -23 -4 13 -68 41 -74 31 -70 -15 5 -39 63 -62 74 -107 50 -27 -15 -25 -23 25 -98 43 -67 133 -218 138 -234 2 -5 18 -10 36 -12 28 -4 32 -2 28 17 -3 12 -7 37 -10 56 -3 18 -20 61 -36 95 -39 78 -19 53 45 -57 35 -61 58 -89 77 -96 16 -6 30 -6 33 -1 3 5 11 7 18 5 8 -4 13 10 15 44 2 41 -4 61 -34 118 -58 109 -108 169 -145 177 -34 6 -54 6 -81 -1z"/>
  </g>
  <g id="layer102" fill="#42a432" stroke="none">
    <path d="M469 848 c-24 -40 -55 -95 -71 -121 -15 -26 -28 -57 -28 -68 0 -16 95 -193 117 -218 7 -8 31 23 59 77 l27 54 -22 45 -22 45 34 57 33 56 68 3 c41 2 73 -2 82 -9 8 -6 32 -45 55 -85 22 -41 50 -81 62 -89 22 -16 157 -22 157 -7 0 4 -42 79 -93 167 l-93 160 -161 3 -162 2 -42 -72z"/>
    <path d="M890 914 c0 -4 16 -33 36 -65 36 -60 39 -62 122 -71 17 -2 33 -19 55 -59 l31 -56 -17 -39 c-40 -87 -42 -88 -174 -94 l-118 -5 -37 -65 -38 -65 191 -3 c166 -2 194 0 210 14 31 28 139 222 139 250 0 27 -41 109 -106 212 l-34 52 -130 0 c-71 0 -130 -3 -130 -6z"/>
    <path d="M625 563 c-49 -86 -91 -165 -93 -176 -4 -18 120 -245 142 -259 6 -5 81 -7 166 -5 l154 2 62 105 63 105 -77 3 -77 3 -35 -41 -35 -41 -70 3 -69 3 -34 58 -34 57 51 89 c28 49 51 101 51 116 0 24 -57 135 -70 135 -3 0 -45 -71 -95 -157z"/>
    <path d="M208 359 c-25 -14 -23 -23 26 -97 43 -67 133 -218 138 -234 2 -5 17 -10 35 -12 31 -4 31 -4 27 32 -9 62 -34 123 -94 222 -49 82 -61 95 -86 97 -16 2 -37 -2 -46 -8z"/>
  </g>
  <g id="layer103" fill="#0971ce" stroke="none">
    <path d="M469 848 c-24 -40 -55 -95 -71 -121 -15 -26 -28 -57 -28 -68 0 -16 95 -193 117 -218 7 -8 31 23 59 77 l27 54 -22 45 -22 45 34 57 33 56 68 3 c41 2 73 -2 82 -9 8 -6 32 -45 55 -85 22 -41 50 -81 62 -89 22 -16 157 -22 157 -7 0 4 -42 79 -93 167 l-93 160 -161 3 -162 2 -42 -72z"/>
    <path d="M890 914 c0 -4 16 -33 36 -65 36 -60 39 -62 122 -71 17 -2 33 -19 55 -59 l31 -56 -17 -39 c-40 -87 -42 -88 -174 -94 l-118 -5 -37 -65 -38 -65 191 -3 c166 -2 194 0 210 14 31 28 139 222 139 250 0 27 -41 109 -106 212 l-34 52 -130 0 c-71 0 -130 -3 -130 -6z"/>
    <path d="M625 563 c-49 -86 -91 -165 -93 -176 -4 -18 120 -245 142 -259 6 -5 81 -7 166 -5 l154 2 62 105 63 105 -77 3 -77 3 -35 -41 -35 -41 -70 3 -69 3 -34 58 -34 57 51 89 c28 49 51 101 51 116 0 24 -57 135 -70 135 -3 0 -45 -71 -95 -157z"/>
  </g>

</svg>
