<?xml version="1.0" encoding="UTF-8" standalone="no"?>

<svg version="1.0" id="elgin" xmlns="http://www.w3.org/2000/svg" width="16mm" viewBox="0 0 2880 900" preserveAspectRatio="xMidYMid meet">
  <g id="layer101" fill="#006b80" stroke="none">
    <path d="M780 887 c-32 -11 -35 -16 -34 -49 2 -65 7 -70 56 -52 24 9 66 16 94 17 81 2 126 -37 138 -121 l7 -44 -27 21 c-95 74 -240 37 -295 -76 -31 -62 -33 -189 -5 -243 43 -83 114 -130 196 -130 54 0 81 10 118 43 l22 20 0 -26 c0 -26 2 -27 58 -27 l57 0 -2 217 c-1 120 -8 250 -14 288 -10 62 -17 75 -53 111 -24 25 -58 46 -81 53 -52 14 -191 13 -235 -2z m221 -316 c28 -28 29 -34 29 -116 0 -82 -1 -88 -29 -116 -60 -60 -148 -23 -172 71 -17 64 -5 116 36 157 44 44 94 46 136 4z"/>
    <path d="M154 706 c-104 -33 -154 -111 -154 -242 0 -70 4 -89 28 -135 17 -34 44 -65 71 -84 40 -28 49 -30 130 -30 81 0 91 2 124 28 51 39 79 98 85 178 l4 66 -32 7 c-18 3 -90 6 -161 6 l-129 0 0 24 c0 35 45 84 89 97 39 11 114 -1 126 -21 12 -20 34 -9 56 26 l22 37 -23 17 c-53 40 -156 51 -236 26z m161 -306 c9 -15 -21 -77 -43 -89 -12 -6 -34 -11 -51 -11 -49 0 -115 69 -96 100 8 13 182 13 190 0z"/>
    <path d="M544 706 c-64 -28 -64 -27 -64 -384 l0 -323 63 3 62 3 3 290 c2 319 2 315 64 315 29 0 29 1 26 53 l-3 52 -60 2 c-34 2 -73 -3 -91 -11z"/>
    <path d="M1220 460 l0 -240 60 0 60 0 0 240 0 240 -60 0 -60 0 0 -240z"/>
    <path d="M1400 460 l0 -240 55 0 55 0 0 37 0 37 16 -23 c22 -31 90 -61 139 -61 60 0 125 37 149 85 18 35 21 63 24 223 l4 182 -65 0 -66 0 -3 -170 c-3 -160 -4 -171 -25 -192 -35 -34 -88 -30 -124 10 l-29 32 0 160 0 160 -65 0 -65 0 0 -240z"/>
    <path d="M1960 688 c0 -7 40 -78 88 -158 85 -141 88 -145 123 -148 30 -3 41 2 59 25 32 41 79 63 107 50 13 -6 23 -18 23 -27 0 -10 9 -38 20 -63 17 -38 19 -57 14 -116 -6 -59 -4 -74 10 -89 19 -22 12 -32 -20 -32 -26 0 -54 -34 -54 -65 0 -64 79 -89 119 -39 12 15 21 36 21 46 0 19 2 19 23 6 39 -26 76 -30 130 -14 29 9 58 20 65 24 7 5 21 40 33 78 11 38 23 77 26 87 4 13 0 17 -16 17 -31 0 -33 16 -12 104 18 75 22 81 90 150 39 39 71 77 71 84 0 7 -9 31 -20 52 -20 39 -33 46 -64 34 -14 -5 -14 -9 -1 -33 14 -28 13 -28 -57 -86 -56 -46 -76 -71 -98 -119 l-28 -60 -29 48 c-26 41 -31 61 -36 142 -4 53 -9 99 -12 105 -9 14 -158 12 -153 -3 3 -7 18 -16 35 -20 37 -10 43 -27 43 -123 0 -39 4 -85 9 -102 l10 -33 -29 15 c-15 8 -30 20 -33 28 -3 7 -23 19 -46 25 -22 7 -42 16 -45 21 -3 4 2 39 10 77 8 38 17 81 21 97 l6 27 -202 0 c-154 0 -201 -3 -201 -12z m547 -356 c4 -17 -1 -30 -15 -45 l-21 -20 -6 29 c-3 16 -14 46 -25 67 l-19 37 40 -22 c23 -13 42 -32 46 -46z m165 -143 c-15 -47 -35 -70 -48 -56 -5 4 54 107 61 107 2 0 -4 -23 -13 -51z"/>
    <path d="M1243 150 c-23 -10 -43 -39 -43 -65 0 -27 46 -65 79 -65 32 0 71 38 71 70 0 44 -62 79 -107 60z"/>
  </g>
</svg>
