<?xml version="1.0" encoding="UTF-8" standalone="no"?>

<svg xmlns="http://www.w3.org/2000/svg" id="location" viewBox="0 -8 100 125">
    <path style="font-size:medium;font-style:normal;font-variant:normal;font-weight:normal;font-stretch:normal;text-indent:0;text-align:start;text-decoration:none;line-height:normal;letter-spacing:normal;word-spacing:normal;text-transform:none;direction:ltr;block-progression:tb;writing-mode:lr-tb;text-anchor:start;baseline-shift:baseline;opacity:1;color:#000000;fill:#000000;fill-opacity:1;stroke:none;stroke-width:9.54545498000000060;marker:none;visibility:visible;display:inline;overflow:visible;enable-background:accumulate;font-family:Sans;-inkscape-font-specification:Sans" d="M 50 15 C 38.420639 15 29 24.295373 29 35.75 C 29 41.518001 31.647246 48.681817 35.46875 56.09375 C 37.598608 60.22468 40.108705 64.412484 42.75 68.4375 C 39.618124 69.006322 36.894148 69.914153 34.84375 71.125 C 32.579407 72.46219 31 74.258871 31 76.40625 C 31 77.776094 31.679029 79.023884 32.71875 80.0625 C 33.758471 81.101116 35.162331 81.963872 36.875 82.6875 C 40.300339 84.134756 44.915266 85 50 85 C 55.084734 85 59.699661 84.134756 63.125 82.6875 C 64.837669 81.963872 66.241529 81.101116 67.28125 80.0625 C 68.320971 79.023884 69 77.776094 69 76.40625 C 69 74.258871 67.420593 72.46219 65.15625 71.125 C 63.105852 69.914153 60.381876 69.006322 57.25 68.4375 C 59.891293 64.412484 62.40139 60.22468 64.53125 56.09375 C 68.352757 48.681817 71 41.518001 71 35.75 C 71 24.295373 61.57937 15 50 15 z M 50 17 C 60.51203 17 69 25.389965 69 35.75 C 69 40.889328 66.499925 47.914402 62.75 55.1875 C 59.211295 62.05093 54.567439 69.102512 50 75.25 C 45.43257 69.102512 40.788703 62.05093 37.25 55.1875 C 33.500077 47.914402 31 40.889328 31 35.75 C 31 25.389965 39.487981 17 50 17 z M 50 24 C 43.384428 24 38 29.384428 38 36 C 38 42.615573 43.384428 48 50 48 C 56.615572 48 62 42.615573 62 36 C 62 29.384428 56.615572 24 50 24 z M 50 26 C 55.534693 26 60 30.465308 60 36 C 60 41.534692 55.534693 46 50 46 C 44.465307 46 40 41.534692 40 36 C 40 30.465308 44.465307 26 50 26 z M 43.96875 70.25 C 45.691914 72.802171 47.435828 75.275993 49.1875 77.59375 A 1.0001 1.0001 0 0 0 50.8125 77.59375 C 52.564176 75.275993 54.308087 72.802171 56.03125 70.25 C 59.370808 70.767087 62.2234 71.70232 64.15625 72.84375 C 66.101123 73.99228 67 75.263266 67 76.40625 C 67 77.136541 66.656978 77.875103 65.875 78.65625 C 65.093022 79.437397 63.88844 80.191096 62.34375 80.84375 C 59.25437 82.149058 54.856391 83 50 83 C 45.143609 83 40.74563 82.149058 37.65625 80.84375 C 36.11156 80.191096 34.906978 79.437397 34.125 78.65625 C 33.343022 77.875103 33 77.136541 33 76.40625 C 33 75.263266 33.898877 73.99228 35.84375 72.84375 C 37.7766 71.70232 40.629192 70.767087 43.96875 70.25 z "/>
</svg>
