<?xml version="1.0" encoding="UTF-8" standalone="no"?>

<svg
   xmlns:dc="http://purl.org/dc/elements/1.1/"
   xmlns:cc="http://creativecommons.org/ns#"
   xmlns:rdf="http://www.w3.org/1999/02/22-rdf-syntax-ns#"
   xmlns:svg="http://www.w3.org/2000/svg"
   xmlns="http://www.w3.org/2000/svg"
   xmlns:sodipodi="http://sodipodi.sourceforge.net/DTD/sodipodi-0.dtd"
   xmlns:inkscape="http://www.inkscape.org/namespaces/inkscape"
   id="tecnico"
   version="1.1"
   inkscape:version="0.91 r13725"
   xml:space="preserve"
   width="25mm"
   viewBox="560 130 600 500"
   sodipodi:docname="tecnico.svg">
    <metadata
     id="metadata8"><rdf:RDF><cc:Work
         rdf:about=""><dc:format>image/svg+xml</dc:format><dc:type
           rdf:resource="http://purl.org/dc/dcmitype/StillImage" /><dc:title></dc:title></cc:Work></rdf:RDF>
    </metadata>
    <defs
     id="defs6"><clipPath
       clipPathUnits="userSpaceOnUse"
       id="clipPath20"><path
         d="m 0,595.28 841.89,0 L 841.89,0 0,0 0,595.28 Z"
         id="path22"
         inkscape:connector-curvature="0" /></clipPath>
    </defs>
    <sodipodi:namedview
     pagecolor="#ffffff"
     bordercolor="#666666"
     borderopacity="1"
     objecttolerance="10"
     gridtolerance="10"
     guidetolerance="10"
     inkscape:pageopacity="0"
     inkscape:pageshadow="2"
     inkscape:window-width="3169"
     inkscape:window-height="1618"
     id="namedview4"
     showgrid="false"
     inkscape:zoom="1.2686467"
     inkscape:cx="514.09234"
     inkscape:cy="295.36465"
     inkscape:window-x="138"
     inkscape:window-y="51"
     inkscape:window-maximized="0"
     inkscape:current-layer="g10" />
    <g id="g10" inkscape:groupmode="layer" inkscape:label="IST_A_Pantone_POS" transform="matrix(1.25,0,0,-1.25,0,744.1)">

        <g id="g16">
            <g
             id="g18"
             clip-path="url(#clipPath20)">
                <g transform="scale(1.45, 1.45),translate(-60, -108)">
                    <g id="g12" transform="translate(382.894,367.1836)">
                        <path
                             d="m 0,0 -15.886,0 0,9.334 42.532,0 0,-9.334 -15.886,0 0,-46.69 L 0,-46.69 0,0 Z"
                             style="fill:#4c565c;fill-opacity:1;fill-rule:nonzero;stroke:none"
                             id="path14"
                             inkscape:connector-curvature="0" />
                    </g>
                    <g
                       id="g24"
                       transform="translate(428.6709,385.8584)"><path
                         d="M 0,0 C 4.014,2.439 7.944,4.878 11.361,7.485 L 15.375,1.261 C 11.532,-1.515 8.372,-3.364 3.76,-5.722 L 0,0 Z m -11.87,-9.34 34.848,0 0,-9.335 -24.087,0 0,-13.545 22.207,0 0,-9.339 -22.207,0 0,-14.467 24.087,0 0,-9.339 -34.848,0 0,56.025 z"
                         style="fill:#4c565c;fill-opacity:1;fill-rule:nonzero;stroke:none"
                         id="path26"
                         inkscape:connector-curvature="0" />
                    </g>
                    <g
                       id="g28"
                       transform="translate(460.1875,361.1265)"><path
                         d="m 0,0 c 0,10.263 6.064,16.236 20.242,16.236 5.297,0 10.762,-0.674 15.46,-1.852 l -1.195,-9.17 c -4.612,0.843 -9.995,1.432 -13.923,1.432 -7.431,0 -9.822,-2.525 -9.822,-8.498 l 0,-21.535 c 0,-5.973 2.391,-8.498 9.822,-8.498 3.928,0 9.311,0.591 13.923,1.432 l 1.195,-9.169 C 31.004,-40.801 25.539,-41.475 20.242,-41.475 6.064,-41.475 0,-35.5 0,-25.238 L 0,0 Z"
                         style="fill:#4c565c;fill-opacity:1;fill-rule:nonzero;stroke:none"
                         id="path30"
                         inkscape:connector-curvature="0" />
                    </g>
                    <g
                       id="g32"
                       transform="translate(515.3623,362.9756)"><path
                         d="m 0,0 0,-42.482 -10.506,0 0,56.024 14.349,0 21.608,-42.563 0,42.563 10.507,0 0,-56.024 -14.35,0 L 0,0 Z"
                         style="fill:#4c565c;fill-opacity:1;fill-rule:nonzero;stroke:none"
                         id="path34"
                         inkscape:connector-curvature="0" />
                    </g>
                    <path
                       d="m 574.036,320.494 -10.763,0 0,56.024 10.763,0 0,-56.024 z"
                       style="fill:#4c565c;fill-opacity:1;fill-rule:nonzero;stroke:none"
                       id="path36"
                       inkscape:connector-curvature="0" />
                    <g
                       id="g38"
                       transform="translate(584.7139,361.1265)"><path
                         d="m 0,0 c 0,10.263 6.063,16.236 20.242,16.236 5.295,0 10.761,-0.674 15.458,-1.852 l -1.195,-9.17 c -4.612,0.843 -9.992,1.432 -13.923,1.432 -7.429,0 -9.822,-2.525 -9.822,-8.498 l 0,-21.535 c 0,-5.973 2.393,-8.498 9.822,-8.498 3.931,0 9.311,0.591 13.923,1.432 L 35.7,-39.622 C 31.003,-40.801 25.537,-41.475 20.242,-41.475 6.063,-41.475 0,-35.5 0,-25.238 L 0,0 Z"
                         style="fill:#4c565c;fill-opacity:1;fill-rule:nonzero;stroke:none"
                         id="path40"
                         inkscape:connector-curvature="0" />
                    </g>
                    <g
                       id="g42"
                       transform="translate(637.582,337.4868)"><path
                         d="m 0,0 c 0,-5.301 2.732,-8.497 10.76,-8.497 8.03,0 10.762,3.196 10.762,8.497 l 0,22.041 c 0,5.299 -2.732,8.497 -10.762,8.497 C 2.732,30.538 0,27.34 0,22.041 L 0,0 Z m 32.285,-0.588 c 0,-9.338 -5.466,-17.247 -21.525,-17.247 -16.055,0 -21.523,7.909 -21.523,17.247 l 0,23.217 c 0,9.338 5.468,17.246 21.523,17.246 16.059,0 21.525,-7.908 21.525,-17.246 l 0,-23.217 z"
                         style="fill:#4c565c;fill-opacity:1;fill-rule:nonzero;stroke:none"
                         id="path44"
                         inkscape:connector-curvature="0" />
                    </g>
                    <g
                       id="g46"
                       transform="translate(387.6919,254.2227)"><path
                         d="m 0,0 25.623,0 0,-4.458 -30.661,0 0,56.027 5.038,0 L 0,0 Z"
                         style="fill:#4c565c;fill-opacity:1;fill-rule:nonzero;stroke:none"
                         id="path48"
                         inkscape:connector-curvature="0" />
                    </g>
                    <path
                       d="m 429.798,249.765 -5.038,0 0,56.027 5.038,0 0,-56.027 z"
                       style="fill:#4c565c;fill-opacity:1;fill-rule:nonzero;stroke:none"
                       id="path50"
                       inkscape:connector-curvature="0" />
                    <g
                       id="g52"
                       transform="translate(459.8613,248.9238)"><path
                         d="m 0,0 c -4.952,0 -11.188,0.841 -16.057,2.689 l 0.939,4.041 C -9.992,5.216 -4.783,4.46 0.171,4.46 c 9.736,0 12.386,2.858 12.386,10.01 0,8.664 -0.085,9.588 -12.728,12.45 -13.75,3.111 -15.287,5.552 -15.287,16.823 0,9.171 3.415,13.964 17.68,13.964 4.953,0 10.846,-0.839 14.691,-1.933 l -0.599,-4.207 c -4.185,0.926 -9.482,1.683 -13.923,1.683 -11.274,0 -12.811,-2.692 -12.811,-9.674 0,-9.085 0.256,-9.507 12.214,-12.45 C 16.742,27.425 17.595,25.322 17.595,14.721 17.595,5.554 14.435,0 0,0"
                         style="fill:#4c565c;fill-opacity:1;fill-rule:nonzero;stroke:none"
                         id="path54"
                         inkscape:connector-curvature="0" />
                    </g>
                    <g
                       id="g56"
                       transform="translate(521.3564,268.3564)"><path
                         d="m 0,0 c 0,4.711 -2.818,7.907 -9.395,7.907 l -15.885,0 0,-22.124 17.338,0 c 5.379,0 7.942,2.608 7.942,7.066 L 0,0 Z m -1.795,27.088 c 0,3.87 -2.22,5.972 -7.089,5.972 l -16.396,0 0,-20.778 14.688,0 c 6.236,0 8.797,3.196 8.797,7.656 l 0,7.15 z m -28.526,-45.68 0,56.027 21.352,0 c 7.688,0 12.215,-3.618 12.215,-11.02 l 0,-6.731 c 0,-4.458 -1.88,-7.402 -6.49,-9.085 C 1.197,10.01 5.038,6.391 5.038,0.169 l 0,-7.32 c 0,-7.74 -5.721,-11.441 -13.066,-11.441 l -22.293,0 z"
                         style="fill:#4c565c;fill-opacity:1;fill-rule:nonzero;stroke:none"
                         id="path58"
                         inkscape:connector-curvature="0" />
                    </g>
                    <g
                       id="g60"
                       transform="translate(571.7461,265.749)"><path
                         d="m 0,0 0,24.058 c 0,7.993 -3.927,12.367 -14.86,12.367 -10.934,0 -14.863,-4.374 -14.863,-12.367 l 0,-24.058 c 0,-7.992 3.929,-12.365 14.863,-12.365 C -3.927,-12.365 0,-7.992 0,0 m -14.86,-16.825 c -14.606,0 -19.903,7.068 -19.903,16.656 l 0,24.396 c 0,9.589 5.297,16.655 19.903,16.655 14.605,0 19.9,-7.066 19.9,-16.655 l 0,-24.396 c 0,-9.588 -5.295,-16.656 -19.9,-16.656"
                         style="fill:#4c565c;fill-opacity:1;fill-rule:nonzero;stroke:none"
                         id="path62"
                         inkscape:connector-curvature="0" />
                    </g>
                    <g
                       id="g64"
                       transform="translate(596.6025,268.7764)"><path
                         d="M 0,0 23.403,0 11.699,34.154 0,0 Z m 24.938,-4.289 -26.475,0 -5.297,-14.723 -4.955,0 19.816,56.027 7.432,0 19.814,-56.027 -4.953,0 -5.382,14.723 z"
                         style="fill:#4c565c;fill-opacity:1;fill-rule:nonzero;stroke:none"
                         id="path66"
                         inkscape:connector-curvature="0" />
                    </g>
                </g>
                <g
                   id="g68"
                   transform="translate(251.2451,202.0059)"><path
                     d="m 0,0 c 0,0 -79.479,38.99 -79.479,111.78 l 0,80.836 159.255,0 0,-80.836 C 79.776,38.99 0,0 0,0"
                     style="fill:#009fe3;fill-opacity:1;fill-rule:evenodd;stroke:none"
                     id="path70"
                     inkscape:connector-curvature="0" />
                </g>
                <g
                   id="g72"
                   transform="translate(293.7866,333.8047)"><path
                     d="m 0,0 -6.633,0 0,-49.854 -14.35,0 -0.002,49.854 -6.613,0 0,9.995 L 0,9.995 0,0 Z"
                     style="fill:#ffffff;fill-opacity:1;fill-rule:nonzero;stroke:none"
                     id="path74"
                     inkscape:connector-curvature="0" />
                </g>
                <g
                   id="g76"
                   transform="translate(229.7217,283.9844)"><path
                     d="m 0,0 -14.344,0 0.016,59.815 14.309,0 L 0,0 Z"
                     style="fill:#ffffff;fill-opacity:1;fill-rule:nonzero;stroke:none"
                     id="path78"
                     inkscape:connector-curvature="0" />
                </g>
                <g
                   id="g80"
                   transform="translate(265.5791,377.6938)"><path
                     d="m 0,0 c -11.87,0 -21.49,-6.152 -21.49,-18.022 l -0.004,-91.622 c 0,-10.055 0,-15.041 -7.143,-15.041 -6.64,0 -7.224,4.965 -7.224,12.292 l -0.002,0 c 0,3.955 -3.211,7.164 -7.169,7.164 -3.953,0 -7.163,-3.209 -7.163,-7.164 l -0.013,0 c 0,-10.087 9.705,-15.275 21.571,-15.275 11.868,0 21.49,6.154 21.49,18.024 l 0.006,91.622 c 0,10.054 -0.002,15.039 7.141,15.039 6.643,0 7.225,-4.971 7.225,-12.288 l 0.008,0 c 0,-3.959 3.206,-7.164 7.16,-7.164 3.96,0 7.166,3.205 7.166,7.164 l 0.014,0 C 21.573,-5.184 11.869,0 0,0"
                     style="fill:#ffffff;fill-opacity:1;fill-rule:nonzero;stroke:none"
                     id="path82"
                     inkscape:connector-curvature="0" />
                </g>
            </g>
        </g>
    </g>
</svg>

