<?xml version="1.0" encoding="UTF-8" standalone="no"?>

<svg xmlns="http://www.w3.org/2000/svg" version="1.1" id="dripcil" viewBox="-50 0 1404.5354 399.99999" width="15mm">
  <g transform="translate(-20,-125.93361)" id="layer1">
    <g transform="matrix(0.97876582,0,0,0.97876582,6.0051763,14.314821)" id="g4266">
      <path
         id="path4280"
         d="m 79.797697,499.05503 c -15.859258,-5.21607 -28.173712,-17.67204 -32.920068,-33.29839 -2.790934,-9.18854 -2.318598,-24.44676 1.023031,-33.0478 4.79533,-12.34272 16.354605,-23.92933 28.874574,-28.94285 4.900412,-1.96233 7.524739,-2.29243 18.224766,-2.29243 10.70003,0 13.32435,0.3301 18.22477,2.29243 12.47455,4.99533 23.94752,16.4683 28.94285,28.94285 1.96233,4.90042 2.29243,7.52474 2.29243,18.22477 0,10.70003 -0.3301,13.32435 -2.29243,18.22477 -5.01112,12.51398 -16.58308,24.06223 -28.94285,28.88353 -8.0971,3.15852 -25.31721,3.68044 -33.427073,1.01312 z m 125.000003,0 c -15.85926,-5.21607 -28.17371,-17.67204 -32.92007,-33.29839 -2.79093,-9.18854 -2.3186,-24.44676 1.02303,-33.0478 4.79533,-12.34272 16.35461,-23.92933 28.87457,-28.94285 4.90042,-1.96233 7.52474,-2.29243 18.22477,-2.29243 10.70003,0 13.32435,0.3301 18.22477,2.29243 12.47455,4.99533 23.94752,16.4683 28.94285,28.94285 1.96233,4.90042 2.29243,7.52474 2.29243,18.22477 0,10.70003 -0.3301,13.32435 -2.29243,18.22477 -5.01112,12.51398 -16.58308,24.06223 -28.94285,28.88353 -8.0971,3.15852 -25.31721,3.68044 -33.42707,1.01312 z m -125.000003,-125 c -15.859258,-5.21607 -28.173712,-17.67204 -32.920068,-33.29839 -2.790934,-9.18854 -2.318598,-24.44676 1.023031,-33.0478 4.79533,-12.34272 16.354605,-23.92933 28.874574,-28.94285 4.900412,-1.96233 7.524739,-2.29243 18.224766,-2.29243 10.70003,0 13.32435,0.3301 18.22477,2.29243 12.47455,4.99533 23.94752,16.4683 28.94285,28.94285 1.96233,4.90042 2.29243,7.52474 2.29243,18.22477 0,10.70003 -0.3301,13.32435 -2.29243,18.22477 -5.01112,12.51398 -16.58308,24.06223 -28.94285,28.88353 -8.0971,3.15852 -25.31721,3.68044 -33.427073,1.01312 z m 125.000003,0 c -15.85926,-5.21607 -28.17371,-17.67204 -32.92007,-33.29839 -2.79093,-9.18854 -2.3186,-24.44676 1.02303,-33.0478 4.79533,-12.34272 16.35461,-23.92933 28.87457,-28.94285 4.90042,-1.96233 7.52474,-2.29243 18.22477,-2.29243 10.70003,0 13.32435,0.3301 18.22477,2.29243 12.47455,4.99533 23.94752,16.4683 28.94285,28.94285 1.96233,4.90042 2.29243,7.52474 2.29243,18.22477 0,10.70003 -0.3301,13.32435 -2.29243,18.22477 -5.01112,12.51398 -16.58308,24.06223 -28.94285,28.88353 -8.0971,3.15852 -25.31721,3.68044 -33.42707,1.01312 z m -125.000003,-125 c -15.859258,-5.21607 -28.173712,-17.67204 -32.920068,-33.29839 -2.790934,-9.18854 -2.318598,-24.44676 1.023031,-33.0478 4.79533,-12.34272 16.354605,-23.92933 28.874574,-28.94285 4.900412,-1.96233 7.524739,-2.29244 18.224766,-2.29244 10.70003,0 13.32435,0.33011 18.22477,2.29244 12.47455,4.99533 23.94752,16.4683 28.94285,28.94285 1.96233,4.90042 2.29243,7.52474 2.29243,18.22477 0,10.70003 -0.3301,13.32435 -2.29243,18.22477 -5.01112,12.51398 -16.58308,24.06223 -28.94285,28.88353 -8.0971,3.15852 -25.31721,3.68044 -33.427073,1.01312 z m 125.000003,0 c -15.85926,-5.21607 -28.17371,-17.67204 -32.92007,-33.29839 -2.79093,-9.18854 -2.3186,-24.44676 1.02303,-33.0478 4.79533,-12.34272 16.35461,-23.92933 28.87457,-28.94285 4.90042,-1.96233 7.52474,-2.29244 18.22477,-2.29244 15.08177,0 19.52321,1.44994 31.96592,10.43545 11.2775,8.14406 15.70329,9.52461 30.53408,9.52461 14.83079,0 19.25658,-1.38055 30.53408,-9.52461 12.44271,-8.98551 16.88415,-10.43545 31.96592,-10.43545 10.70003,0 13.32435,0.33011 18.22477,2.29244 12.47455,4.99533 23.94752,16.4683 28.94285,28.94285 1.96233,4.90042 2.29243,7.52474 2.29243,18.22477 0,10.70003 -0.3301,13.32435 -2.29243,18.22477 -4.99533,12.47455 -16.4683,23.94752 -28.94285,28.94285 -4.90042,1.96233 -7.52474,2.29243 -18.22477,2.29243 -15.10262,0 -19.51879,-1.44673 -32.05868,-10.50242 -10.50256,-7.58444 -17.96569,-10.0478 -30.44132,-10.0478 -12.47563,0 -19.93876,2.46336 -30.44132,10.0478 -11.67752,8.43292 -17.02801,10.3084 -30.55868,10.71153 -8.71826,0.25975 -12.18284,-0.0613 -16.7023,-1.54774 z"
         style="fill:#d5d5d6" />
      <path
         id="path4278"
         d="M 82,499.51841 C 65.872163,494.70292 53.347004,483.27129 47.704377,468.217 c -3.115431,-8.31183 -3.115431,-26.25495 0,-34.56678 4.918189,-13.12152 16.890714,-25.09404 30.012232,-30.01223 4.702798,-1.7627 7.9321,-2.16773 17.283391,-2.16773 9.35129,0 12.58059,0.40503 17.28339,2.16773 13.12152,4.91819 25.09404,16.89071 30.01223,30.01223 3.11543,8.31183 3.11543,26.25495 0,34.56678 -4.93291,13.1608 -17.01611,25.21887 -30.01223,29.94983 -7.2339,2.63335 -23.551445,3.36161 -30.28339,1.35158 z m 125,0 c -16.12784,-4.81549 -28.653,-16.24712 -34.29562,-31.30141 -3.11543,-8.31183 -3.11543,-26.25495 0,-34.56678 4.91819,-13.12152 16.89071,-25.09404 30.01223,-30.01223 4.7028,-1.7627 7.9321,-2.16773 17.28339,-2.16773 9.35129,0 12.58059,0.40503 17.28339,2.16773 13.12152,4.91819 25.09404,16.89071 30.01223,30.01223 3.11543,8.31183 3.11543,26.25495 0,34.56678 -4.93291,13.1608 -17.01611,25.21887 -30.01223,29.94983 -7.23391,2.63335 -23.55145,3.36161 -30.28339,1.35158 z m -125,-125 C 65.872163,369.70292 53.347004,358.27129 47.704377,343.217 c -3.115431,-8.31183 -3.115431,-26.25495 0,-34.56678 4.918189,-13.12152 16.890714,-25.09404 30.012232,-30.01223 4.702798,-1.7627 7.9321,-2.16773 17.283391,-2.16773 9.35129,0 12.58059,0.40503 17.28339,2.16773 13.12152,4.91819 25.09404,16.89071 30.01223,30.01223 3.11543,8.31183 3.11543,26.25495 0,34.56678 -4.93291,13.1608 -17.01611,25.21887 -30.01223,29.94983 -7.2339,2.63335 -23.551445,3.36161 -30.28339,1.35158 z m 125,0 c -16.12784,-4.81549 -28.653,-16.24712 -34.29562,-31.30141 -3.11543,-8.31183 -3.11543,-26.25495 0,-34.56678 4.91819,-13.12152 16.89071,-25.09404 30.01223,-30.01223 4.7028,-1.7627 7.9321,-2.16773 17.28339,-2.16773 9.35129,0 12.58059,0.40503 17.28339,2.16773 13.12152,4.91819 25.09404,16.89071 30.01223,30.01223 3.11543,8.31183 3.11543,26.25495 0,34.56678 -4.93291,13.1608 -17.01611,25.21887 -30.01223,29.94983 -7.23391,2.63335 -23.55145,3.36161 -30.28339,1.35158 z m -125,-125 C 65.872163,244.70292 53.347004,233.27129 47.704377,218.217 c -3.115431,-8.31183 -3.115431,-26.25495 0,-34.56678 4.918189,-13.12152 16.890714,-25.09404 30.012232,-30.01223 8.311835,-3.11543 26.254951,-3.11543 34.566781,0 13.12152,4.91819 25.09404,16.89071 30.01223,30.01223 3.11543,8.31183 3.11543,26.25495 0,34.56678 -4.93291,13.1608 -17.01611,25.21887 -30.01223,29.94983 -7.2339,2.63335 -23.551445,3.36161 -30.28339,1.35158 z m 125,0 c -16.12784,-4.81549 -28.653,-16.24712 -34.29562,-31.30141 -3.11543,-8.31183 -3.11543,-26.25495 0,-34.56678 4.92111,-13.12932 16.916,-25.11924 30.01223,-29.9998 4.60293,-1.71538 8.02863,-2.16158 16.78339,-2.18605 13.88262,-0.0388 20.07284,1.86206 30.40261,9.33597 21.74896,15.73606 43.44582,15.73606 65.19478,0 10.32977,-7.47391 16.51999,-9.37479 30.40261,-9.33597 8.75476,0.0245 12.18046,0.47067 16.78339,2.18605 13.09623,4.88056 25.09112,16.87048 30.01223,29.9998 3.11543,8.31183 3.11543,26.25495 0,34.56678 -4.92111,13.12932 -16.916,25.11924 -30.01223,29.9998 -4.60293,1.71538 -8.02863,2.16158 -16.78339,2.18605 -13.54626,0.0379 -19.34125,-1.66811 -29.03962,-8.54898 -10.14508,-7.19781 -17.88167,-10.70418 -26.60827,-12.0594 -14.1829,-2.20255 -26.11643,1.27677 -41.27558,12.03424 -3.80791,2.70222 -9.20791,5.69585 -12,6.65249 -6.63598,2.27367 -23.45949,2.86364 -29.57653,1.03721 z"
         style="fill:#c7c7c8" />
      <path
         id="path4276"
         d="m 82.26455,499.39202 c -8.265036,-2.22588 -15.206709,-6.23664 -21.872625,-12.63758 -20.59317,-19.77458 -20.59317,-51.86708 0,-71.64166 20.282937,-19.47667 51.070975,-18.94652 70.428905,1.21275 19.06636,19.85564 19.06636,49.36052 0,69.21616 -12.51242,13.03038 -31.495198,18.44508 -48.55628,13.85033 z m 125,0 c -17.13376,-4.61433 -31.2672,-18.85322 -35.73336,-35.99996 -4.50687,-17.30304 0.78017,-35.71867 13.86073,-48.27928 20.28294,-19.47667 51.07098,-18.94652 70.42891,1.21275 19.06636,19.85564 19.06636,49.36052 0,69.21616 -12.51242,13.03038 -31.4952,18.44508 -48.55628,13.85033 z m -125,-125 c -8.265036,-2.22588 -15.206709,-6.23664 -21.872625,-12.63758 -20.59317,-19.77458 -20.59317,-51.86708 0,-71.64166 20.282937,-19.47667 51.070975,-18.94652 70.428905,1.21275 19.06636,19.85564 19.06636,49.36052 0,69.21616 -12.51242,13.03038 -31.495198,18.44508 -48.55628,13.85033 z m 125,0 c -17.13376,-4.61433 -31.2672,-18.85322 -35.73336,-35.99996 -4.50687,-17.30304 0.78017,-35.71867 13.86073,-48.27928 20.28294,-19.47667 51.07098,-18.94652 70.42891,1.21275 19.06636,19.85564 19.06636,49.36052 0,69.21616 -12.51242,13.03038 -31.4952,18.44508 -48.55628,13.85033 z m -125,-125 C 65.130792,244.77769 50.997352,230.5388 46.531192,213.39206 c -4.506869,-17.30304 0.780163,-35.71867 13.860733,-48.27928 20.282937,-19.47667 51.070975,-18.94652 70.428905,1.21275 19.06636,19.85564 19.06636,49.36052 0,69.21616 -12.51242,13.03038 -31.495198,18.44508 -48.55628,13.85033 z m 125,0.0626 c -17.33497,-4.87581 -31.27447,-18.94374 -35.73336,-36.06256 -4.39231,-16.86322 0.3028,-34.2103 12.77457,-47.19835 10.48065,-10.91451 23.7567,-15.99151 39.19424,-14.98857 9.79474,0.63634 17.62136,3.46695 25.84017,9.34547 22.68201,16.22335 43.63765,16.22335 66.31966,0 8.21881,-5.87852 16.04543,-8.70913 25.84017,-9.34547 15.43754,-1.00294 28.71359,4.07406 39.19424,14.98857 9.57977,9.97634 14.30576,21.45286 14.30576,34.7399 0,13.28704 -4.72599,24.76356 -14.30576,34.7399 -10.48065,10.91451 -23.7567,15.99151 -39.19424,14.98857 -9.04638,-0.58772 -16.81505,-3.1788 -23.91107,-7.97505 C 300.6336,231.22681 296.06658,229.51201 282.5,229.51201 c -13.56658,0 -18.1336,1.7148 -35.08893,13.17502 -7.86661,5.3171 -14.75686,7.4505 -25.41107,7.86795 -6.37405,0.24975 -11.22271,-0.11232 -14.73545,-1.10035 z"
         style="fill:#acacae" />
      <path
         id="path4274"
         d="M 83.347877,499.5138 C 61.42788,494.19681 45,473.3855 45,450.93361 c 0,-26.98942 23.010584,-50 50,-50 26.98942,0 50,23.01058 50,50 0,27.39033 -23.34055,50.32459 -50.799221,49.91495 -3.135428,-0.0468 -8.019234,-0.64741 -10.852902,-1.33476 z m 125.000003,0 C 186.42788,494.19681 170,473.3855 170,450.93361 c 0,-26.98942 23.01058,-50 50,-50 13.06899,0 25.43051,5.25317 35.08867,14.91133 19.90294,19.90293 19.90294,50.27441 0,70.17734 -12.56459,12.5646 -29.91525,17.57279 -46.74079,13.49152 z m -125.000003,-125 C 61.42788,369.19681 45,348.3855 45,325.93361 c 0,-26.98942 23.010584,-50 50,-50 26.98942,0 50,23.01058 50,50 0,27.39033 -23.34055,50.32459 -50.799221,49.91495 -3.135428,-0.0468 -8.019234,-0.64741 -10.852902,-1.33476 z m 125.000003,0 C 186.42788,369.19681 170,348.3855 170,325.93361 c 0,-26.98942 23.01058,-50 50,-50 26.98942,0 50,23.01058 50,50 0,27.39033 -23.34055,50.32459 -50.79922,49.91495 -3.13543,-0.0468 -8.01924,-0.64741 -10.8529,-1.33476 z m -125.000003,-125 C 61.42788,244.19681 45,223.3855 45,200.93361 c 0,-26.98942 23.010584,-50 50,-50 23.00285,0 44.19204,17.24746 48.89492,39.79922 3.46806,16.63045 -1.52444,33.00765 -13.80625,45.28945 -12.56459,12.5646 -29.91525,17.57279 -46.740793,13.49152 z m 125.000003,0.0635 C 186.20894,243.93427 170,223.37346 170,200.93361 c 0,-28.59403 25.49656,-52.14747 53.80322,-49.70279 10.05463,0.86836 16.70117,3.45454 27.15766,10.56707 13.13259,8.93284 17.86962,10.51164 31.53912,10.51164 13.6695,0 18.40653,-1.5788 31.53912,-10.51164 10.45649,-7.11253 17.10303,-9.69871 27.15766,-10.56707 C 369.50344,148.78614 395,172.33958 395,200.93361 c 0,23.46716 -17.5172,44.52711 -40.80322,49.0554 -12.44851,2.42079 -26.62991,-0.57075 -36.99409,-7.80383 -14.9182,-10.41129 -22.35621,-13.25157 -34.70269,-13.25157 -12.34648,0 -19.78449,2.84028 -34.70269,13.25157 -2.95657,2.06337 -8.05797,4.70462 -11.33644,5.86945 -7.3993,2.62894 -20.9034,3.36037 -28.11299,1.52269 z"
         style="fill:#939496" />
      <path
         id="path4272"
         d="m 87,500.30825 c -18.821924,-3.64383 -33.58963,-16.46119 -39.605255,-34.37464 -2.529206,-7.53152 -2.526742,-22.48122 0.0049,-30 C 52.63291,420.39164 64.483814,408.53894 80,403.32835 c 7.522829,-2.52628 22.47717,-2.52628 30,0 15.51619,5.21059 27.36709,17.06329 32.60031,32.60526 2.53461,7.52745 2.53461,22.47255 0,30 -5.14238,15.27217 -16.61734,26.98736 -31.49416,32.1535 -5.50704,1.91238 -19.189158,3.17305 -24.10615,2.22114 z m 125,0 c -18.82192,-3.64383 -33.58963,-16.46119 -39.60526,-34.37464 -2.5292,-7.53152 -2.52674,-22.48122 0.005,-30 5.23322,-15.54197 17.08412,-27.39467 32.60031,-32.60526 7.52283,-2.52628 22.47717,-2.52628 30,0 15.51619,5.21059 27.36709,17.06329 32.60031,32.60526 2.53461,7.52745 2.53461,22.47255 0,30 -5.14238,15.27217 -16.61734,26.98736 -31.49416,32.1535 -5.50704,1.91238 -19.18916,3.17305 -24.10615,2.22114 z m -125,-125 c -18.821924,-3.64383 -33.58963,-16.46119 -39.605255,-34.37464 -2.529206,-7.53152 -2.526742,-22.48122 0.0049,-30 C 52.63291,295.39164 64.483814,283.53894 80,278.32835 c 7.522829,-2.52628 22.47717,-2.52628 30,0 15.51619,5.21059 27.36709,17.06329 32.60031,32.60526 2.53461,7.52745 2.53461,22.47255 0,30 -5.14238,15.27217 -16.61734,26.98736 -31.49416,32.1535 -5.50704,1.91238 -19.189158,3.17305 -24.10615,2.22114 z m 125,0 c -18.82192,-3.64383 -33.58963,-16.46119 -39.60526,-34.37464 -2.5292,-7.53152 -2.52674,-22.48122 0.005,-30 5.23322,-15.54197 17.08412,-27.39467 32.60031,-32.60526 7.52283,-2.52628 22.47717,-2.52628 30,0 15.51619,5.21059 27.36709,17.06329 32.60031,32.60526 2.53461,7.52745 2.53461,22.47255 0,30 -5.14238,15.27217 -16.61734,26.98736 -31.49416,32.1535 -5.50704,1.91238 -19.18916,3.17305 -24.10615,2.22114 z m -125,-125 c -18.821924,-3.64383 -33.58963,-16.46119 -39.605255,-34.37464 -2.529206,-7.53152 -2.526742,-22.48122 0.0049,-30 C 52.63291,170.39164 64.483814,158.53894 80,153.32835 c 7.522829,-2.52628 22.47717,-2.52628 30,0 15.51619,5.21059 27.36709,17.06329 32.60031,32.60526 2.53461,7.52745 2.53461,22.47255 0,30 -5.14238,15.27217 -16.61734,26.98736 -31.49416,32.1535 -5.50704,1.91238 -19.189158,3.17305 -24.10615,2.22114 z m 125,0 c -18.82192,-3.64383 -33.58963,-16.46119 -39.60526,-34.37464 -2.5292,-7.53152 -2.52674,-22.48122 0.005,-30 5.23138,-15.5365 17.05598,-27.36659 32.60031,-32.61545 3.99152,-1.34782 8.24269,-1.83754 15.5,-1.78556 11.4144,0.0818 18.19125,2.13808 27.35446,8.30021 12.20274,8.20616 15.45884,9.93635 21.60505,11.48023 8.21704,2.06405 17.86394,2.06405 26.08098,0 6.14621,-1.54388 9.40231,-3.27407 21.60505,-11.48023 9.16321,-6.16213 15.94006,-8.21844 27.35446,-8.30021 11.13963,-0.0798 17.4502,1.52749 26,6.62214 15.40265,9.17812 23.95224,24.44775 23.95224,42.77887 0,18.33112 -8.54959,33.60075 -23.95224,42.77887 -8.5498,5.09465 -14.86037,6.70194 -26,6.62214 -13.43287,-0.0962 -21.08009,-2.98716 -34.0106,-12.85724 -8.07815,-6.16619 -14.38708,-7.96053 -27.9894,-7.96053 -13.60232,0 -19.91125,1.79434 -27.9894,7.96053 -11.70849,8.93729 -20.30113,12.41788 -31.96718,12.9488 -4.42388,0.20134 -9.16842,0.14827 -10.54342,-0.11793 z"
         style="fill:#87888b" />
      <path
         id="path4270"
         d="M 84.361954,499.43975 C 74.803423,497.36103 67.227204,493.16081 60,485.93361 52.634877,478.56849 48.57255,471.12594 46.449164,461.10728 c -1.774696,-8.37346 -1.774696,-11.97388 0,-20.34734 C 48.57255,430.74128 52.634877,423.29873 60,415.93361 c 7.365123,-7.36512 14.807667,-11.42745 24.826332,-13.55084 8.373463,-1.77469 11.973873,-1.77469 20.347338,0 10.01866,2.12339 17.46121,6.18572 24.82633,13.55084 7.36512,7.36512 11.42745,14.80767 13.55084,24.82633 1.77469,8.37346 1.77469,11.97388 0,20.34734 -2.12339,10.01866 -6.18572,17.46121 -13.55084,24.82633 -7.36512,7.36512 -14.80767,11.42745 -24.82633,13.55084 -8.098541,1.71642 -12.75962,1.70641 -20.811716,-0.0447 z m 124.999996,0 C 199.80342,497.36103 192.2272,493.16081 185,485.93361 c -7.36512,-7.36512 -11.42745,-14.80767 -13.55084,-24.82633 -1.77469,-8.37346 -1.77469,-11.97388 0,-20.34734 2.12339,-10.01866 6.18572,-17.46121 13.55084,-24.82633 7.36512,-7.36512 14.80767,-11.42745 24.82633,-13.55084 8.37346,-1.77469 11.97388,-1.77469 20.34734,0 10.01866,2.12339 17.46121,6.18572 24.82633,13.55084 7.36512,7.36512 11.42745,14.80767 13.55084,24.82633 1.77469,8.37346 1.77469,11.97388 0,20.34734 -2.12339,10.01866 -6.18572,17.46121 -13.55084,24.82633 -7.36512,7.36512 -14.80767,11.42745 -24.82633,13.55084 -8.09854,1.71642 -12.75962,1.70641 -20.81172,-0.0447 z m -124.999996,-125 C 74.803423,372.36103 67.227204,368.16081 60,360.93361 52.634877,353.56849 48.57255,346.12594 46.449164,336.10728 c -1.774696,-8.37346 -1.774696,-11.97388 0,-20.34734 C 48.57255,305.74128 52.634877,298.29873 60,290.93361 c 7.365123,-7.36512 14.807667,-11.42745 24.826332,-13.55084 8.373463,-1.77469 11.973873,-1.77469 20.347338,0 10.01866,2.12339 17.46121,6.18572 24.82633,13.55084 7.36512,7.36512 11.42745,14.80767 13.55084,24.82633 1.77469,8.37346 1.77469,11.97388 0,20.34734 -2.12339,10.01866 -6.18572,17.46121 -13.55084,24.82633 -7.36512,7.36512 -14.80767,11.42745 -24.82633,13.55084 -8.098541,1.71642 -12.75962,1.70641 -20.811716,-0.0447 z m 124.999996,0 c -3.37592,-0.73417 -8.77592,-2.6109 -12,-4.1705 -7.66161,-3.7062 -17.9834,-14.01934 -21.68015,-21.66197 -2.98731,-6.17594 -5.64707,-16.85522 -5.64707,-22.67367 0,-5.81845 2.65976,-16.49773 5.64707,-22.67367 3.68816,-7.62488 14.01965,-17.95637 21.64453,-21.64453 6.17594,-2.98731 16.85522,-5.64707 22.67367,-5.64707 5.81845,0 16.49773,2.65976 22.67367,5.64707 7.62488,3.68816 17.95637,14.01965 21.64453,21.64453 2.98731,6.17594 5.64707,16.85522 5.64707,22.67367 0,5.81845 -2.65976,16.49773 -5.64707,22.67367 -3.68816,7.62488 -14.01965,17.95637 -21.64453,21.64453 -6.47224,3.13062 -17.05062,5.68005 -23.17367,5.58494 -2.2,-0.0342 -6.76212,-0.66283 -10.13805,-1.397 z m -124.999996,-125 C 74.803423,247.36103 67.227204,243.16081 60,235.93361 52.634877,228.56849 48.57255,221.12594 46.449164,211.10728 c -1.774696,-8.37347 -1.774696,-11.97388 0,-20.34734 C 48.57255,180.74128 52.634877,173.29873 60,165.93361 c 7.365123,-7.36512 14.807667,-11.42745 24.826332,-13.55084 8.373463,-1.77469 11.973873,-1.77469 20.347338,0 10.01866,2.12339 17.46121,6.18572 24.82633,13.55084 7.36512,7.36512 11.42745,14.80767 13.55084,24.82633 1.77469,8.37346 1.77469,11.97387 0,20.34734 -2.12339,10.01866 -6.18572,17.46121 -13.55084,24.82633 -7.36512,7.36512 -14.80767,11.42745 -24.82633,13.55084 -8.098541,1.71642 -12.75962,1.70641 -20.811716,-0.0447 z m 124.999996,0.0636 C 199.6963,247.3012 192.18221,243.11582 185,235.93361 c -7.36512,-7.36512 -11.42745,-14.80767 -13.55084,-24.82633 -1.77469,-8.37347 -1.77469,-11.97388 0,-20.34734 2.12339,-10.01866 6.18572,-17.46121 13.55084,-24.82633 7.36512,-7.36512 14.80767,-11.42745 24.82633,-13.55084 8.38871,-1.77792 11.97184,-1.77507 20.42502,0.0163 8.04056,1.70389 14.18687,4.65285 22.5886,10.83785 10.11102,7.44331 15.54667,9.11349 29.66005,9.11349 14.11338,0 19.54903,-1.67018 29.66005,-9.11349 8.40173,-6.185 14.54804,-9.13396 22.5886,-10.83785 8.45318,-1.79133 12.03631,-1.79418 20.42502,-0.0163 10.01866,2.12339 17.46121,6.18572 24.82633,13.55084 7.36512,7.36512 11.42745,14.80767 13.55084,24.82633 1.77469,8.37346 1.77469,11.97387 0,20.34734 -2.12339,10.01866 -6.18572,17.46121 -13.55084,24.82633 -13.74242,13.74242 -32.76664,18.14238 -51.36017,11.87867 -5.44863,-1.83551 -9.05832,-3.94983 -19.48261,-11.41161 -7.30261,-5.22727 -13.7175,-6.88382 -26.65722,-6.88382 -12.93972,0 -19.35461,1.65655 -26.65722,6.88382 -10.45254,7.482 -14.0508,9.58176 -19.65517,11.46974 -8.1514,2.74601 -19.03274,3.40837 -26.82566,1.63291 z"
         style="fill:#7e7f82" />
      <path
         id="path4268"
         d="M 84.410929,499.44974 C 59.010604,493.92311 41.65885,468.56479 45.945217,443.23493 49.613059,421.56017 66.265983,405.15847 88,401.81457 c 32.23772,-4.95996 61.079,23.88132 56.11904,56.11904 -3.21192,20.87621 -18.55542,37.22876 -38.99704,41.56165 -8.036197,1.70338 -12.72047,1.69309 -20.711071,-0.0455 z m 125.000001,0 c -25.40033,-5.52663 -42.75208,-30.88495 -38.46571,-56.21481 3.66784,-21.67476 20.32076,-38.07646 42.05478,-41.42036 32.23772,-4.95996 61.079,23.88132 56.11904,56.11904 -3.21192,20.87621 -18.55542,37.22876 -38.99704,41.56165 -8.0362,1.70338 -12.72047,1.69309 -20.71107,-0.0455 z m -125.000001,-125 C 59.010604,368.92311 41.65885,343.56479 45.945217,318.23493 49.613059,296.56017 66.265983,280.15847 88,276.81457 c 32.23772,-4.95996 61.079,23.88132 56.11904,56.11904 -3.21192,20.87621 -18.55542,37.22876 -38.99704,41.56165 -8.036197,1.70338 -12.72047,1.69309 -20.711071,-0.0455 z m 125.000001,0 c -25.40033,-5.52663 -42.75208,-30.88495 -38.46571,-56.21481 3.66784,-21.67476 20.32076,-38.07646 42.05478,-41.42036 32.23772,-4.95996 61.079,23.88132 56.11904,56.11904 -3.21192,20.87621 -18.55542,37.22876 -38.99704,41.56165 -8.0362,1.70338 -12.72047,1.69309 -20.71107,-0.0455 z m -125.000001,-125 C 59.010604,243.92311 41.65885,218.56479 45.945217,193.23493 49.613059,171.56018 66.265983,155.15847 88,151.81457 c 32.23772,-4.95996 61.079,23.88132 56.11904,56.11904 -3.21192,20.87621 -18.55542,37.22876 -38.99704,41.56165 -8.036197,1.70338 -12.72047,1.69309 -20.711071,-0.0455 z m 125.000001,0 c -20.02099,-4.35619 -35.35473,-20.87833 -38.52997,-41.51613 -3.19661,-20.77669 8.17094,-42.35213 27.09173,-51.41967 18.37384,-8.80543 36.84235,-6.54625 54.84894,6.70944 10.12996,7.45726 15.55944,9.12699 29.67837,9.12699 14.11893,0 19.54841,-1.66973 29.67837,-9.12699 18.00659,-13.25569 36.4751,-15.51487 54.84894,-6.70944 19.08314,9.14535 30.55573,31.26848 27.02747,52.11835 -3.6169,21.37374 -19.98236,37.7392 -41.3561,41.3561 -13.03214,2.20533 -28.82693,-2.01116 -39.14193,-10.44909 -8.87097,-7.25668 -18.63025,-10.58195 -31.05675,-10.58195 -12.36295,0 -22.10427,3.30001 -31,10.50169 -5.76888,4.6703 -13.75534,8.42054 -21.36893,10.03432 -8.04525,1.70527 -12.72757,1.69542 -20.72014,-0.0436 z"
         style="fill:#6c6d70" />
    </g>
  </g>
  <g transform="translate(-300,-250),scale(1.4,1.4)" id="layer1">
    <text
       id="text4282"
       y="414.76547"
       x="622.39661"
       style="font-style:normal;font-variant:normal;font-weight:normal;font-stretch:normal;font-size:263.753479px;line-height:125%;font-family:sans-serif;-inkscape-font-specification:sans-serif;letter-spacing:0px;word-spacing:0px;fill:#6d6e71;fill-opacity:1;stroke:none;stroke-width:1px;stroke-linecap:butt;stroke-linejoin:miter;stroke-opacity:1"
       xml:space="preserve"><tspan
         dx="0"
         style="letter-spacing:-6.88530302px;word-spacing:0px"
         y="414.76547"
         x="622.39661"
         id="tspan4284">Dripcil</tspan></text>
  </g>
</svg>
