<?xml version="1.0" encoding="UTF-8" standalone="no"?>

<svg xmlns="http://www.w3.org/2000/svg" id="freelancer" viewBox="0 0 450 125" width="28mm">
    <g>
        <path fill="none" d="M32.346,31.371c0.191,0.191,0.391,0.285,0.58,0.252c0.094-0.015,0.174-0.061,0.25-0.129   c0.925,2.873,2.695,5.734,4.927,7.442c1.287,0.985,2.727,1.588,4.248,1.588c1.552,0,3.021-0.629,4.331-1.652   c2.191-1.717,3.927-4.543,4.843-7.38c0.074,0.07,0.154,0.116,0.246,0.13c0.164,0.03,0.336-0.035,0.502-0.176   c0.418-0.355,0.811-1.182,0.99-2.186c0.23-1.311,0.021-2.458-0.473-2.688c-0.035-0.017-0.07-0.03-0.111-0.037   c-0.154-0.027-0.311,0.029-0.467,0.151l-0.006,0.011c0-0.001-0.002-0.001-0.002-0.002c0,0-0.004,0.002-0.008,0.003   c0-0.011,0-0.02,0-0.029c-0.59-2.247-1.336-3.621-2.104-4.439c-0.15-0.082-0.305-0.153-0.477-0.203   c-0.018,0.33,0.359,0.833,0.399,1.326c-1.069-0.499-2.088-1.271-3.578-1.326c-0.346-0.013-0.725-0.01-1.109-0.002   c-3.598,1.285-7.549-0.168-7.549-0.168c-4.509-0.417-5.224,4.265-5.279,4.801c0,0.013-0.001,0.027-0.001,0.039c0,0,0,0-0.002,0   c-0.159-0.127-0.322-0.189-0.479-0.161c-0.068,0.011-0.133,0.04-0.191,0.083c-0.141,0.1-0.25,0.29-0.334,0.533   c-0.043,0.629-0.073,1.268-0.081,1.926c0.009,0.061,0.014,0.121,0.026,0.182C31.604,30.2,31.959,30.984,32.346,31.371z"/>
        <path fill="none" d="M69.619,56H15.688c-1.858,0-3.37,1.512-3.37,3.369l4.491,26.029c0.003,1.896,1.515,3.408,3.374,3.408h44.942   c1.857,0,3.369-1.512,3.369-3.369l4.5-26.105C72.99,57.512,71.477,56,69.619,56z M42.654,73.57c-0.893,0-1.617-0.723-1.617-1.617   c0-0.891,0.724-1.615,1.617-1.615c0.893,0,1.615,0.725,1.615,1.615C44.27,72.848,43.547,73.57,42.654,73.57z"/>
        <path fill="none" d="M72.301,18.79c-6.066,0-11.002,4.935-11.002,11s4.936,11,11.002,11c6.065,0,11-4.935,11-11   S78.366,18.79,72.301,18.79z M78.585,36.22c-0.194,0.19-0.446,0.285-0.698,0.285c-0.26,0-0.52-0.101-0.716-0.301l-5.585-5.715   c-0.029-0.029-0.04-0.066-0.064-0.098c-0.055-0.071-0.11-0.14-0.145-0.224c-0.034-0.083-0.043-0.172-0.053-0.261   c-0.005-0.04-0.023-0.075-0.023-0.116v-4.836c0-0.552,0.447-1,1-1s1,0.448,1,1v4.428l5.301,5.424   C78.987,35.201,78.98,35.834,78.585,36.22z"/>
        <path fill="#000000" d="M31.304,32.467c1.005,2.704,2.597,5.332,4.565,7.253c1.113,1.087,2.347,1.949,3.663,2.472   c0.905,0.357,1.848,0.557,2.819,0.557c0.971,0,1.915-0.2,2.818-0.557c1.36-0.541,2.635-1.445,3.778-2.585   c1.921-1.917,3.472-4.504,4.457-7.162c0.76-0.223,1.555-1.642,1.877-3.456c0.354-1.968,0.018-3.684-0.74-3.972   c0.025-0.479,0.047-0.965,0.047-1.462c-0.021-7.133-4.201-11.28-10.795-11.723c-5.753-0.386-10.083,1.898-12.058,5.695   c-0.664,1.277-1.044,2.876-1.188,4.611c-0.222,0.903-0.352,1.843-0.352,2.813h0.021c0,0.009-0.001,0.016-0.001,0.025   c-0.014,0.001-0.029,0.001-0.042,0.004c-0.841,0.146-1.226,1.94-0.854,4.008C29.657,30.888,30.515,32.355,31.304,32.467z    M31.493,27.152c0.083-0.243,0.193-0.433,0.334-0.533c0.058-0.042,0.123-0.072,0.191-0.083c0.157-0.028,0.32,0.033,0.479,0.161   c0.002,0,0.002,0,0.002,0c0-0.012,0.001-0.026,0.001-0.039c0.055-0.536,0.77-5.217,5.279-4.801c0,0,3.951,1.453,7.549,0.168   c0.384-0.008,0.763-0.011,1.109,0.002c1.49,0.055,2.509,0.827,3.578,1.326c-0.04-0.492-0.417-0.996-0.399-1.326   c0.172,0.05,0.327,0.121,0.477,0.203c0.768,0.818,1.514,2.193,2.104,4.439c0,0.009,0,0.018,0,0.029   c0.004-0.001,0.008-0.003,0.008-0.003c0,0,0.002,0,0.002,0.002l0.006-0.011c0.156-0.122,0.313-0.178,0.467-0.151   c0.041,0.006,0.076,0.02,0.111,0.037c0.494,0.229,0.703,1.377,0.473,2.688c-0.18,1.004-0.572,1.831-0.99,2.186   c-0.166,0.141-0.338,0.207-0.502,0.176c-0.092-0.014-0.172-0.06-0.246-0.13c-0.916,2.837-2.652,5.663-4.843,7.38   c-1.31,1.023-2.779,1.652-4.331,1.652c-1.521,0-2.961-0.603-4.248-1.588c-2.232-1.708-4.002-4.569-4.927-7.442   c-0.076,0.068-0.156,0.114-0.25,0.129c-0.189,0.033-0.389-0.061-0.58-0.252c-0.386-0.387-0.741-1.171-0.907-2.111   c-0.013-0.061-0.018-0.121-0.026-0.182C31.42,28.42,31.45,27.781,31.493,27.152z"/>
        <path fill="#000000" d="M68.158,89.992H17.149c-0.496,0-0.899,0.402-0.899,0.898s0.403,0.898,0.899,0.898h51.009   c0.496,0,0.898-0.402,0.898-0.898S68.654,89.992,68.158,89.992z"/>
        <path fill="#000000" d="M69.619,55.551h-2.086c-0.031-0.164-0.07-0.328-0.117-0.49c-2.875-9.888-8.182-10.226-9.328-10.494   c-2.246-0.527-4.973-0.303-6.426-0.757c-0.254,2.129-4.351,3.821-9.369,3.821s-9.114-1.692-9.37-3.821   c-1.453,0.454-4.177,0.229-6.429,0.757c-1.143,0.267-6.452,0.606-9.325,10.494c-0.047,0.162-0.086,0.326-0.117,0.49h-1.365   c-2.106,0-3.82,1.713-3.817,3.857l4.491,26.029c0,2.105,1.714,3.818,3.82,3.818h44.942c2.107,0,3.82-1.713,3.816-3.783   l4.496-26.104C73.438,57.264,71.725,55.551,69.619,55.551z M68.494,85.438c0,1.857-1.512,3.369-3.369,3.369H20.183   c-1.858,0-3.37-1.512-3.374-3.408l-4.491-26.029c0-1.857,1.512-3.369,3.37-3.369h53.931c1.857,0,3.371,1.512,3.375,3.332   L68.494,85.438z"/>
        <circle fill="#000000" cx="42.654" cy="71.954" r="1.616"/>
        <path fill="#000000" d="M72.301,16.79c-7.17,0-13.002,5.832-13.002,13s5.832,13,13.002,13c7.168,0,13-5.832,13-13   S79.469,16.79,72.301,16.79z M72.301,40.79c-6.066,0-11.002-4.935-11.002-11s4.936-11,11.002-11c6.065,0,11,4.935,11,11   S78.366,40.79,72.301,40.79z"/>
        <path fill="#000000" d="M73.301,29.382v-4.428c0-0.552-0.447-1-1-1s-1,0.448-1,1v4.836c0,0.041,0.019,0.076,0.023,0.116   c0.01,0.089,0.019,0.177,0.053,0.261c0.034,0.084,0.09,0.153,0.145,0.224c0.024,0.032,0.035,0.069,0.064,0.098l5.585,5.715   c0.196,0.201,0.456,0.301,0.716,0.301c0.252,0,0.504-0.095,0.698-0.285c0.396-0.386,0.402-1.02,0.017-1.414L73.301,29.382z"/>
    </g>
    <g>
        <text style="font-size: 17mm; font-family: DIN Regular;" transform="translate(115, 80)">Freelancer</text>
    </g>
</svg>
